<svg width="40" height="25" viewBox="0 0 40 25" xmlns="http://www.w3.org/2000/svg"><defs><linearGradient x1="-57.527%" y1="50.124%" x2="232.391%" y2="50.124%" id="a"><stop stop-color="#007940" offset="0%"/><stop stop-color="#00873F" offset="22.85%"/><stop stop-color="#40A737" offset="74.33%"/><stop stop-color="#5CB531" offset="100%"/></linearGradient><linearGradient x1=".183%" y1="49.96%" x2="100.273%" y2="49.96%" id="b"><stop stop-color="#007940" offset="0%"/><stop stop-color="#00873F" offset="22.85%"/><stop stop-color="#40A737" offset="74.33%"/><stop stop-color="#5CB531" offset="100%"/></linearGradient><linearGradient x1="-62.802%" y1="49.858%" x2="253.671%" y2="49.858%" id="c"><stop stop-color="#007940" offset="0%"/><stop stop-color="#00873F" offset="22.85%"/><stop stop-color="#40A737" offset="74.33%"/><stop stop-color="#5CB531" offset="100%"/></linearGradient><linearGradient x1=".176%" y1="50.006%" x2="101.808%" y2="50.006%" id="d"><stop stop-color="#1F286F" offset="0%"/><stop stop-color="#004E94" offset="47.51%"/><stop stop-color="#0066B1" offset="82.61%"/><stop stop-color="#006FBC" offset="100%"/></linearGradient><linearGradient x1="-.576%" y1="49.914%" x2="98.133%" y2="49.914%" id="e"><stop stop-color="#6C2C2F" offset="0%"/><stop stop-color="#882730" offset="17.35%"/><stop stop-color="#BE1833" offset="57.31%"/><stop stop-color="#DC0436" offset="85.85%"/><stop stop-color="#E60039" offset="100%"/></linearGradient></defs><g fill="none" fill-rule="evenodd"><path fill="#FAFAFA" d="M0 0h40v25H0z"/><g fill-rule="nonzero"><path d="M13.038 8.926h1.144c.033 0 .11-.011.142-.011.218-.047.403-.257.403-.55a.56.56 0 0 0-.403-.548c-.033-.012-.098-.012-.142-.012h-1.144v1.121z" fill="url(#a)" transform="translate(11 5)"/><path d="M14.051 1.185c-1.089 0-1.982.946-1.982 2.125v2.207h2.8c.065 0 .141 0 .196.011.631.035 1.1.386 1.1.993 0 .479-.316.887-.904.969v.023c.642.047 1.132.432 1.132 1.028 0 .642-.544 1.062-1.263 1.062h-3.072v4.32h2.908c1.09 0 1.983-.945 1.983-2.124V1.185h-2.898z" fill="url(#b)" transform="translate(11 5)"/><path d="M14.585 6.661a.487.487 0 0 0-.403-.502c-.022 0-.076-.012-.109-.012h-1.035v1.028h1.035c.033 0 .098 0 .11-.012a.487.487 0 0 0 .402-.502z" fill="url(#c)" transform="translate(11 5)"/><path d="M3.093 1.185c-1.089 0-1.982.946-1.982 2.125v5.243c.555.292 1.133.478 1.71.478.686 0 1.057-.443 1.057-1.05V5.504h1.699V7.97c0 .957-.556 1.74-2.44 1.74-1.144 0-2.037-.269-2.037-.269v4.472h2.908c1.09 0 1.983-.946 1.983-2.125V1.185H3.093z" fill="url(#d)" transform="translate(11 5)"/><path d="M8.572 1.185c-1.089 0-1.982.946-1.982 2.125v2.779c.501-.455 1.372-.747 2.778-.677a8.297 8.297 0 0 1 1.557.257v.899A3.586 3.586 0 0 0 9.422 6.1c-1.067-.082-1.71.478-1.71 1.46 0 .992.643 1.552 1.71 1.459.62-.047 1.1-.257 1.503-.467v.899s-.795.222-1.557.257c-1.406.07-2.277-.222-2.778-.678v4.904h2.908c1.09 0 1.983-.945 1.983-2.125V1.185H8.572z" fill="url(#e)" transform="translate(11 5)"/></g></g></svg>