<svg width="40" height="25" viewBox="0 0 40 25" xmlns="http://www.w3.org/2000/svg"><g fill="none" fill-rule="evenodd"><path fill="#FAFAFA" d="M0 0h40v25H0z"/><path d="M29.508 20.45v.04h.036a.038.038 0 0 0 .02-.005.018.018 0 0 0 .007-.015.017.017 0 0 0-.007-.015.035.035 0 0 0-.02-.005h-.036zm.036-.028c.019 0 .034.004.044.013.01.008.015.02.015.035a.04.04 0 0 1-.012.03.06.06 0 0 1-.035.015l.048.056h-.037l-.045-.056h-.014v.056h-.032v-.149h.068zm-.01.2a.125.125 0 0 0 .048-.24.126.126 0 0 0-.096 0 .121.121 0 0 0-.066.066.121.121 0 0 0-.009.049c0 .017.003.034.01.049a.117.117 0 0 0 .065.066.12.12 0 0 0 .049.01zm0-.285a.157.157 0 0 1 .115.047.157.157 0 0 1 .047.113.154.154 0 0 1-.013.062.166.166 0 0 1-.085.085.16.16 0 0 1-.178-.034.166.166 0 0 1-.035-.05.154.154 0 0 1-.012-.063.157.157 0 0 1 .098-.147.16.16 0 0 1 .064-.013zm-14.864-.572c0-.283.184-.516.484-.516.286 0 .48.223.48.516 0 .293-.194.516-.48.516-.3 0-.484-.233-.484-.516zm1.29 0v-.806h-.346v.196a.601.601 0 0 0-.503-.236c-.447 0-.797.354-.797.846s.35.846.797.846a.601.601 0 0 0 .503-.236v.195h.346v-.805zm11.707 0c0-.283.183-.516.483-.516.287 0 .48.223.48.516 0 .293-.193.516-.48.516-.3 0-.483-.233-.483-.516zm1.29 0v-1.452h-.347v.842a.601.601 0 0 0-.503-.236c-.447 0-.797.354-.797.846s.35.846.797.846a.601.601 0 0 0 .503-.236v.195h.347v-.805zm-8.697-.532c.224 0 .367.141.404.39h-.827c.037-.232.177-.39.423-.39zm.007-.314c-.467 0-.793.344-.793.846 0 .512.34.846.817.846.24 0 .46-.06.653-.226l-.17-.26a.757.757 0 0 1-.464.17c-.223 0-.426-.105-.476-.395h1.183a1.68 1.68 0 0 0 .007-.135c-.004-.502-.31-.846-.757-.846zm4.183.846c0-.283.184-.516.484-.516.286 0 .48.223.48.516 0 .293-.194.516-.48.516-.3 0-.484-.233-.484-.516zm1.29 0v-.806h-.346v.196a.602.602 0 0 0-.503-.236c-.447 0-.797.354-.797.846s.35.846.797.846a.602.602 0 0 0 .503-.236v.195h.346v-.805zm-3.246 0c0 .489.336.846.85.846.24 0 .4-.054.573-.192l-.166-.283a.695.695 0 0 1-.417.145c-.277-.004-.48-.206-.48-.516 0-.31.203-.512.48-.516.15 0 .287.05.417.145l.166-.283a.828.828 0 0 0-.573-.192c-.514 0-.85.357-.85.846zm4.466-.846a.47.47 0 0 0-.42.236v-.196h-.343v1.611h.347v-.903c0-.266.113-.414.34-.414.07 0 .143.01.216.04l.107-.33a.73.73 0 0 0-.247-.044zm-9.286.169c-.167-.112-.397-.169-.65-.169-.404 0-.663.196-.663.516 0 .262.193.424.55.475l.163.023c.19.027.28.078.28.169 0 .125-.127.196-.363.196a.842.842 0 0 1-.53-.169l-.164.273c.19.141.43.209.69.209.46 0 .727-.22.727-.526 0-.283-.21-.431-.557-.482l-.163-.024c-.15-.02-.27-.05-.27-.158 0-.118.113-.188.303-.188.203 0 .4.077.497.138l.15-.283zm4.47-.169c-.2 0-.33.094-.42.236v-.196h-.343v1.611h.346v-.903c0-.266.113-.414.34-.414.07 0 .143.01.217.04l.106-.33a.73.73 0 0 0-.246-.044zm-2.957.04h-.566v-.488h-.35v.488h-.324v.32h.323v.735c0 .374.144.597.554.597.15 0 .323-.047.433-.125l-.1-.3a.636.636 0 0 1-.307.091c-.173 0-.23-.108-.23-.27v-.727h.567v-.32zm-5.18 1.611v-1.01c0-.381-.24-.638-.626-.641a.615.615 0 0 0-.56.287.583.583 0 0 0-.527-.287c-.17 0-.336.05-.467.24v-.2h-.346v1.611h.35v-.893c0-.28.153-.428.39-.428.23 0 .346.152.346.425v.896h.35v-.893c0-.28.16-.428.39-.428.237 0 .35.152.35.425v.896h.35z" fill-rule="nonzero" fill="#231F20"/><path fill="#FF5F00" fill-rule="nonzero" d="M22.824 16.225h-5.25v-9.54h5.25z"/><path d="M17.91 11.455c0-1.935.896-3.66 2.291-4.77a5.933 5.933 0 0 0-3.708-1.297c-3.314 0-6 2.716-6 6.067 0 3.35 2.686 6.067 6 6.067 1.4 0 2.688-.485 3.708-1.297a6.081 6.081 0 0 1-2.291-4.77" fill-rule="nonzero" fill="#EB001B"/><path d="M29.904 11.455c0 3.35-2.686 6.067-6 6.067-1.4 0-2.687-.485-3.708-1.297a6.08 6.08 0 0 0 2.292-4.77 6.08 6.08 0 0 0-2.292-4.77 5.935 5.935 0 0 1 3.708-1.297c3.314 0 6 2.716 6 6.067" fill-rule="nonzero" fill="#F79E1B"/></g></svg>