<svg width="40" height="25" viewBox="0 0 40 25" xmlns="http://www.w3.org/2000/svg"><g fill="none" fill-rule="evenodd"><path fill="#FAFAFA" d="M0 0h40v25H0z"/><g fill-rule="nonzero"><path fill="#00579F" d="M18.376 16.854h-1.93l1.207-7.619h1.93zM25.375 9.422a4.675 4.675 0 0 0-1.732-.325c-1.906 0-3.25 1.038-3.257 2.52-.016 1.095.961 1.703 1.692 2.067.747.373 1 .617 1 .949-.007.51-.603.746-1.159.746-.77 0-1.184-.122-1.811-.406l-.255-.121-.27 1.71c.453.21 1.287.397 2.154.405 2.025 0 3.344-1.021 3.36-2.602.008-.867-.508-1.531-1.62-2.074-.676-.349-1.09-.584-1.09-.94.008-.325.35-.657 1.113-.657a3.225 3.225 0 0 1 1.438.292l.174.08.263-1.644zM27.941 14.155c.16-.438.77-2.132.77-2.132-.007.017.16-.445.255-.73l.135.657s.365 1.824.445 2.205H27.94zm2.383-4.92h-1.493c-.46 0-.81.138-1.01.632l-2.867 6.987h2.026l.405-1.143h2.479c.055.267.23 1.143.23 1.143h1.788l-1.558-7.619zM14.832 9.235l-1.89 5.195-.207-1.053c-.35-1.216-1.446-2.537-2.67-3.194l1.733 6.663h2.041l3.035-7.61h-2.042z"/><path d="M11.186 9.235H8.079l-.031.154c2.423.632 4.028 2.156 4.687 3.988l-.675-3.501c-.111-.487-.453-.625-.874-.64z" fill="#FAA61A"/></g></g></svg>